<?xml version="1.0" standalone="no"?>
<!DOCTYPE svg PUBLIC "-//W3C//DTD SVG 20010904//EN"
 "http://www.w3.org/TR/2001/REC-SVG-20010904/DTD/svg10.dtd">
<svg version="1.0" xmlns="http://www.w3.org/2000/svg"
 width="500.000000pt" height="500.000000pt" viewBox="0 0 500.000000 500.000000"
 preserveAspectRatio="xMidYMid meet">
<metadata>
Created by potrace 1.14, written by Peter Selinger 2001-2017
</metadata>
<g transform="translate(0.000000,500.000000) scale(0.100000,-0.100000)"
fill="#000000" stroke="none">
<path d="M2759 4996 c-2 -2 -31 -6 -64 -10 -65 -7 -94 -11 -215 -32 -68 -13
-328 -80 -425 -111 -268 -86 -555 -240 -775 -418 -120 -96 -262 -234 -336
-325 -16 -19 -34 -39 -40 -45 -22 -19 -133 -176 -190 -268 -154 -248 -292
-608 -328 -852 -3 -22 -8 -51 -11 -65 -12 -60 -15 -77 -21 -159 -15 -209 -5
-527 21 -621 2 -8 7 -35 10 -60 30 -218 165 -578 301 -806 55 -92 174 -267
193 -284 4 -3 28 -32 56 -65 132 -158 334 -338 523 -465 242 -161 603 -313
858 -359 32 -6 70 -13 84 -16 14 -3 45 -8 70 -11 25 -3 56 -8 70 -11 14 -3
140 -7 280 -8 236 -3 287 0 475 28 22 4 60 9 85 12 25 3 56 8 70 10 14 3 39 7
56 10 17 2 75 16 130 31 54 14 106 27 114 29 129 30 448 174 575 260 17 11 42
27 57 34 36 19 220 157 283 214 34 31 47 49 40 56 -7 7 -29 -6 -70 -41 -45
-37 -49 -40 -19 -10 27 26 38 44 32 50 -7 7 -44 -19 -107 -72 -97 -80 -275
-206 -292 -206 -5 0 -9 -4 -9 -10 0 -5 -5 -10 -10 -10 -6 0 -42 -18 -80 -39
-84 -48 -226 -113 -335 -153 -89 -33 -309 -94 -370 -103 -22 -4 -47 -8 -55
-10 -8 -2 -35 -7 -60 -10 -25 -3 -76 -9 -115 -14 -70 -9 -422 -7 -460 3 -11 2
-35 5 -54 5 -56 1 -31 9 54 16 266 22 438 135 514 340 18 46 23 83 24 160 2
118 -15 179 -70 251 -81 105 -161 159 -328 219 -396 144 -457 172 -490 227
-32 55 -12 147 43 195 37 32 113 54 170 47 144 -16 235 -81 268 -189 22 -75
32 -86 80 -91 291 -28 321 -26 335 28 7 28 -2 96 -23 163 -27 89 -114 198
-207 256 -37 24 -41 29 -25 35 68 22 154 76 210 131 102 101 144 212 139 369
-4 135 -44 226 -137 309 -100 89 -164 117 -421 181 -389 96 -453 136 -432 270
22 146 245 207 407 111 46 -28 58 -42 90 -107 21 -41 46 -81 55 -88 13 -9 63
-12 185 -12 160 2 169 3 183 23 20 29 19 62 -6 143 -34 109 -99 196 -195 260
-54 36 -163 84 -196 87 -35 3 -18 13 41 25 142 29 279 131 337 247 27 56 29
68 29 176 0 113 -1 116 -38 192 -42 85 -93 135 -179 177 -29 14 -53 30 -55 36
-2 5 15 30 37 55 77 85 104 213 69 332 -54 183 -163 250 -409 250 -69 0 -159
-5 -200 -11 -41 -7 -97 -14 -125 -17 -27 -3 -63 -8 -80 -10 -16 -3 -52 -7 -80
-9 l-50 -5 50 15 c131 39 248 66 340 79 22 3 46 8 53 10 56 19 442 27 577 12
88 -9 216 -33 320 -58 44 -11 88 -22 97 -24 9 -2 70 -23 135 -46 217 -77 444
-197 622 -329 46 -34 83 -55 86 -49 4 5 1 17 -7 27 -7 9 3 4 24 -11 26 -20 38
-25 44 -16 22 36 -369 275 -601 367 -191 76 -422 136 -635 167 -48 7 -565 17
-571 11z m-833 -304 c1 -21 17 -149 19 -162 1 -8 6 -42 9 -75 4 -33 9 -71 11
-85 2 -14 6 -47 9 -75 6 -48 10 -79 20 -155 3 -19 14 -111 26 -205 11 -93 22
-181 25 -195 2 -14 9 -68 15 -120 6 -52 13 -108 15 -125 2 -16 7 -55 11 -85 4
-30 11 -61 17 -67 5 -7 29 -13 54 -13 l44 0 -73 -72 c-103 -101 -136 -173
-143 -308 -10 -182 77 -330 241 -413 60 -30 222 -87 292 -102 65 -14 203 -53
251 -70 54 -19 60 -19 35 0 -18 13 -17 14 11 6 17 -5 39 -12 50 -16 13 -5 7 4
-16 26 -44 42 -58 73 -53 124 4 46 27 81 75 113 100 68 225 -80 165 -195 -27
-53 -71 -77 -141 -77 l-61 -1 51 -30 c69 -41 107 -114 93 -177 -15 -67 -46
-105 -114 -138 -94 -45 -200 -54 -297 -24 -115 35 -184 104 -222 222 -12 39
-24 56 -42 63 -13 5 -90 9 -171 9 -160 0 -192 -8 -202 -50 -8 -35 22 -158 55
-227 35 -71 130 -169 208 -212 l57 -33 -59 -39 c-120 -80 -191 -190 -210 -323
-6 -38 -8 -72 -7 -75 2 -3 7 -31 10 -61 13 -114 95 -223 224 -299 37 -22 141
-67 232 -101 258 -95 312 -118 363 -156 79 -58 101 -139 59 -221 -70 -137
-329 -145 -499 -16 -37 28 -93 133 -93 172 0 36 -25 68 -58 75 -47 9 -194 20
-261 19 -80 -1 -91 -12 -86 -92 2 -31 7 -71 10 -89 15 -85 77 -195 145 -256
55 -50 32 -43 -120 36 -273 142 -524 336 -709 549 -94 108 -105 121 -160 196
-303 418 -466 924 -465 1448 0 104 10 266 18 310 2 11 7 42 10 69 19 140 76
351 137 507 207 533 594 977 1098 1261 78 43 95 49 97 30z m816 -89 c43 -26
69 -75 73 -136 6 -89 -41 -153 -130 -176 -34 -8 -265 -41 -293 -41 -5 0 -14
12 -21 26 -11 26 -16 47 -26 134 -3 25 -8 64 -11 88 -11 88 -6 91 176 112 52
7 96 13 98 15 9 9 108 -8 134 -22z m130 -575 c74 -56 104 -179 64 -262 -35
-74 -111 -102 -351 -131 -22 -2 -56 -7 -75 -10 -47 -8 -66 13 -75 85 -4 30 -9
62 -10 70 -3 16 -16 127 -20 175 -6 64 4 69 200 90 33 4 62 9 64 11 2 1 40 2
85 1 73 -2 87 -5 118 -29z m1698 -3431 c0 -2 -10 -12 -22 -23 l-23 -19 19 23
c18 21 26 27 26 19z"/>
</g>
</svg>
